<svg xmlns="http://www.w3.org/2000/svg" width="30" height="30" viewBox="0 0 30 30">
    <g fill="none" fill-rule="evenodd" transform="translate(1 1)">
        <circle cx="14" cy="14" r="14" fill="#FFF"/>
        <path fill="#0029E7" stroke="#0029E7" d="M14 28c1.911 0 3.722-.367 5.433-1.1 1.711-.733 3.19-1.744 4.434-3.033 1.289-1.245 2.3-2.723 3.033-4.434A13.648 13.648 0 0 0 28 14c0-1.911-.367-3.722-1.1-5.433-.733-1.711-1.744-3.19-3.033-4.434-1.245-1.289-2.723-2.3-4.434-3.033A13.648 13.648 0 0 0 14 0c-1.956 0-3.778.367-5.467 1.1a14.328 14.328 0 0 0-4.466 3.033C2.822 5.378 1.833 6.856 1.1 8.567A13.648 13.648 0 0 0 0 14c0 1.911.367 3.722 1.1 5.433.733 1.711 1.722 3.19 2.967 4.434A14.328 14.328 0 0 0 8.533 26.9c1.69.733 3.511 1.1 5.467 1.1zm0-26.867c1.778 0 3.444.334 5 1 1.556.667 2.911 1.6 4.067 2.8A13.315 13.315 0 0 1 25.833 9c.69 1.556 1.034 3.222 1.034 5s-.345 3.444-1.034 5a13.315 13.315 0 0 1-2.766 4.067 12.324 12.324 0 0 1-4.067 2.8c-1.556.666-3.222 1-5 1s-3.444-.334-5-1a13.082 13.082 0 0 1-4.133-2.8A12.842 12.842 0 0 1 2.133 19c-.666-1.556-1-3.222-1-5s.334-3.444 1-5a12.842 12.842 0 0 1 2.734-4.067c1.2-1.2 2.577-2.133 4.133-2.8 1.556-.666 3.222-1 5-1zM14.867 20l.733.8 6.8-6.8-6.8-6.8-.733.8 5.4 5.467H6.733v1.066h13.534L14.867 20z"/>
    </g>
</svg>
