<svg xmlns="http://www.w3.org/2000/svg" xmlns:xlink="http://www.w3.org/1999/xlink" width="80" height="80" viewBox="0 0 80 80">
    <defs>
        <path id="a" d="M0 40V0h80v80H0z"/>
    </defs>
    <g fill="none" fill-rule="evenodd">
        <g>
            <mask id="b" fill="#fff">
                <use xlink:href="#a"/>
            </mask>
            <path fill="#0029E7" d="M40 0C29.136 0 27.772.044 23.508.24c-4.256.196-7.164.872-9.712 1.86-2.628 1.024-4.86 2.392-7.08 4.612C4.488 8.936 3.12 11.168 2.1 13.8 1.108 16.344.432 19.248.244 23.508.048 27.776 0 29.136 0 40s.048 12.228.244 16.492c.188 4.26.864 7.168 1.856 9.708 1.02 2.632 2.388 4.864 4.616 7.088 2.22 2.22 4.452 3.592 7.08 4.612 2.548.988 5.456 1.664 9.712 1.86 4.264.196 5.628.24 16.492.24s12.228-.044 16.492-.24c4.256-.196 7.164-.872 9.712-1.86 2.628-1.02 4.86-2.392 7.08-4.612 2.228-2.224 3.596-4.456 4.616-7.088.992-2.54 1.668-5.448 1.856-9.708C79.952 52.228 80 50.864 80 40s-.048-12.224-.244-16.492c-.188-4.26-.864-7.164-1.856-9.708-1.02-2.632-2.388-4.864-4.616-7.088-2.22-2.22-4.452-3.588-7.08-4.612-2.548-.988-5.456-1.664-9.712-1.86C52.228.044 50.864 0 40 0m0 7.208c10.68 0 11.944.04 16.164.232 3.9.18 6.016.828 7.424 1.38 1.868.724 3.2 1.592 4.604 2.992 1.396 1.396 2.264 2.728 2.992 4.596.548 1.412 1.2 3.528 1.376 7.428.192 4.22.232 5.484.232 16.164 0 10.68-.04 11.944-.232 16.164-.176 3.9-.828 6.016-1.376 7.428-.728 1.868-1.596 3.2-2.992 4.6-1.404 1.396-2.736 2.264-4.604 2.992-1.408.548-3.524 1.2-7.424 1.376-4.22.192-5.484.232-16.164.232-10.68 0-11.944-.04-16.164-.232-3.9-.176-6.016-.828-7.424-1.376-1.868-.728-3.2-1.596-4.604-2.992-1.396-1.4-2.264-2.732-2.992-4.6-.548-1.412-1.2-3.528-1.376-7.428-.192-4.22-.232-5.484-.232-16.164 0-10.68.04-11.944.232-16.164.176-3.9.828-6.016 1.376-7.428.728-1.868 1.596-3.2 2.992-4.596 1.404-1.4 2.736-2.268 4.604-2.992 1.408-.552 3.524-1.2 7.424-1.38 4.22-.192 5.484-.232 16.164-.232" mask="url(#b)"/>
        </g>
        <path fill="#0029E7" d="M54.68 38.168L31.252 25.792a2.072 2.072 0 0 0-2.04.056c-.62.376-1 1.048-1 1.776v24.752c0 .728.38 1.4 1 1.776a2.089 2.089 0 0 0 2.04.056L54.68 41.832A2.067 2.067 0 0 0 55.784 40c0-.768-.424-1.476-1.104-1.832"/>
    </g>
</svg>
