<svg xmlns="http://www.w3.org/2000/svg" xmlns:xlink="http://www.w3.org/1999/xlink" width="391" height="90" viewBox="0 0 391 90">
    <defs>
        <path id="a" d="M0 .072h92.918v89.82H0z"/>
        <path id="c" d="M0 .045h17.689V26.15H0z"/>
        <path id="e" d="M.03.099h16.023v26.8H.029z"/>
    </defs>
    <g fill="none" fill-rule="evenodd">
        <g transform="translate(0 .036)">
            <mask id="b" fill="#fff">
                <use xlink:href="#a"/>
            </mask>
            <path fill="#FFF" d="M46.46 89.892a4.912 4.912 0 0 1-4.651-3.235A42.73 42.73 0 0 0 40.2 82.92a13.321 13.321 0 0 1-3.491.475c-2.722 0-5.347-.86-7.593-2.489-1.14-.826-3.714-3.28-4.883-5.296-.683-1.07-.87-1.205-1.27-1.495-.398-.29-.585-.425-1.816-.742-2.287-.487-5.422-2.174-6.559-3-2.128-1.543-3.715-3.639-4.586-6.059a13.247 13.247 0 0 1-.767-4.084c-1.684-.237-3.143-.376-4.47-.428A4.906 4.906 0 0 1 .249 56.39a4.898 4.898 0 0 1 1.646-5.416c1-.787 2.045-1.705 3.203-2.815-1.945-3.231-2.416-7.05-1.227-10.702l.255-.784.068-.066c.65-1.557 1.928-3.991 3.217-5.422.808-.977.88-1.195 1.03-1.66.155-.473.226-.692.149-1.96-.243-2.32.396-5.816.831-7.15 1.238-3.803 4.004-6.67 7.667-8.09-.314-1.859-.656-3.423-1.047-4.803a4.88 4.88 0 0 1 .809-4.314 5.013 5.013 0 0 1 3.97-1.98c.974 0 1.923.29 2.746.839 1.17.781 2.52 1.57 4.146 2.421C30.188 1.68 33.665.072 37.482.072c1.406 0 4.935.475 7.07 1.421 1.183.466 1.414.466 1.907.466.494 0 .724 0 1.908-.466C50.5.547 54.03.073 55.437.073c3.817 0 7.293 1.606 9.77 4.415 1.624-.85 2.974-1.64 4.146-2.421a4.938 4.938 0 0 1 2.746-.839c1.546 0 3.03.74 3.97 1.98a4.88 4.88 0 0 1 .808 4.314c-.39 1.38-.732 2.944-1.047 4.802 3.664 1.42 6.43 4.289 7.668 8.093.434 1.332 1.073 4.828.83 7.148-.077 1.27-.006 1.487.147 1.955.152.467.223.685 1.03 1.663 1.542 1.71 3.119 4.974 3.542 6.274 1.189 3.652.718 7.47-1.227 10.702a43.517 43.517 0 0 0 3.204 2.815 4.898 4.898 0 0 1 1.645 5.416 4.906 4.906 0 0 1-4.515 3.412c-1.328.052-2.787.19-4.47.428-.045 1.411-.301 2.788-.768 4.084-.84 2.334-2.344 4.365-4.36 5.892l-.013.013-.216.157c-1.138.825-4.273 2.51-6.555 2.997-1.233.318-1.419.453-1.817.741-.4.29-.586.425-1.27 1.496-1.17 2.019-3.746 4.473-4.884 5.297-2.245 1.628-4.87 2.488-7.592 2.488a13.33 13.33 0 0 1-3.491-.474 42.665 42.665 0 0 0-1.608 3.736 4.913 4.913 0 0 1-4.65 3.235" mask="url(#b)"/>
        </g>
        <path fill="#0029E7" d="M88.936 53.652c-1.738-1.366-3.552-3.06-5.59-5.162 2.697-2.733 3.654-6.393 2.493-9.958-.316-.973-1.712-3.846-2.882-5.107-1.264-1.523-1.452-2.1-1.69-2.83-.237-.728-.425-1.305-.3-3.283.192-1.62-.312-4.703-.676-5.82-1.197-3.676-4.277-6.114-8.245-6.646.435-3.228.933-5.897 1.585-8.203.399-1.408-1.185-2.556-2.404-1.743-1.947 1.3-4.27 2.566-7.114 3.937-1.779-3.357-4.95-5.364-8.676-5.364-1.176 0-4.27.474-5.756 1.156-1.844.73-2.454.73-3.222.73-.768 0-1.377 0-3.221-.73-1.486-.682-4.58-1.156-5.757-1.156-3.725 0-6.897 2.007-8.676 5.364C25.96 7.466 23.639 6.199 21.69 4.9c-1.22-.813-2.803.335-2.404 1.743.652 2.306 1.15 4.975 1.585 8.203-3.967.532-7.047 2.97-8.244 6.646-.364 1.117-.869 4.2-.677 5.82.125 1.976-.063 2.555-.301 3.286-.237.727-.424 1.304-1.69 2.829-1.11 1.198-2.518 3.989-2.881 5.105v.001c-1.161 3.563-.205 7.223 2.493 9.957-2.038 2.102-3.852 3.796-5.59 5.162-1.155.909-.555 2.766.914 2.823 2.312.09 4.903.42 7.963.968-.875 4.067.482 7.902 3.713 10.245.95.69 3.733 2.122 5.338 2.441 1.921.491 2.414.848 3.037 1.3.622.45 1.114.808 2.176 2.48.8 1.422 3.024 3.62 3.975 4.31 1.7 1.233 3.634 1.847 5.61 1.847 1.712 0 3.454-.462 5.105-1.377 1.357 2.558 2.4 4.784 3.16 6.84.51 1.379 2.463 1.379 2.973 0 .759-2.056 1.802-4.282 3.16-6.84 1.65.915 3.392 1.377 5.103 1.377 1.976 0 3.91-.614 5.61-1.846.951-.69 3.176-2.888 3.977-4.312 1.062-1.672 1.555-2.03 2.176-2.48.621-.45 1.114-.807 3.036-1.299 1.604-.319 4.386-1.75 5.338-2.44 3.231-2.343 4.588-6.179 3.713-10.246 3.06-.547 5.65-.878 7.963-.968 1.47-.057 2.069-1.914.914-2.823"/>
        <path fill="#0029E7" d="M43.037 56.966L39.7 74.095c-.073.371-.007.76.18 1.09 2.34 4.114 4.006 7.402 5.093 10.343.51 1.38 2.463 1.38 2.972 0 1.087-2.94 2.752-6.229 5.093-10.344.187-.329.253-.718.18-1.09l-3.337-17.128a1.59 1.59 0 0 0-1.561-1.284h-3.722a1.59 1.59 0 0 0-1.56 1.284M30.605 42.99l-17.357 2.126a1.602 1.602 0 0 0-.982.509c-3.199 3.491-5.817 6.088-8.284 8.027-1.155.909-.555 2.766.914 2.823 3.14.122 6.789.687 11.435 1.636.372.076.763.019 1.095-.165l15.293-8.46a1.586 1.586 0 0 0 .742-1.879l-1.15-3.531a1.59 1.59 0 0 0-1.706-1.085M40.082 26.873l-7.389-15.815a1.6 1.6 0 0 0-.788-.775C27.587 8.326 24.303 6.643 21.69 4.9c-1.22-.813-2.803.335-2.404 1.743C20.14 9.66 20.73 13.298 21.261 18c.042.376.218.73.495.987l12.79 11.9c.556.518 1.403.57 2.019.123l3.01-2.182a1.585 1.585 0 0 0 .507-1.955M58.372 30.887l12.79-11.9c.278-.258.453-.61.496-.987.53-4.702 1.12-8.34 1.973-11.356.399-1.41-1.185-2.557-2.404-1.744-2.612 1.742-5.896 3.426-10.214 5.383a1.6 1.6 0 0 0-.788.775l-7.389 15.815a1.585 1.585 0 0 0 .507 1.955l3.01 2.182a1.593 1.593 0 0 0 2.02-.123M60.199 49.486l15.293 8.46c.332.184.723.241 1.095.165 4.646-.95 8.296-1.514 11.435-1.636 1.47-.057 2.069-1.914.914-2.823-2.467-1.94-5.085-4.536-8.283-8.027a1.602 1.602 0 0 0-.983-.509l-17.356-2.125a1.59 1.59 0 0 0-1.707 1.085l-1.15 3.531c-.235.723.076 1.51.742 1.879"/>
        <path fill="#EC001D" d="M37.481 6.047c-3.071 0-5.906 1.886-7.087 5.658-1.182 3.772-.95 6.601.798 9.194L46.46 41.881 61.726 20.9c1.748-2.593 1.98-5.422.799-9.194-1.182-3.772-4.017-5.658-7.088-5.658-.945 0-3.78.471-4.725.943-2.363.943-3.308.943-4.253.943-.945 0-1.89 0-4.253-.943-.945-.472-3.78-.943-4.725-.943"/>
        <path fill="#0029E7" d="M33.308 19.427L46.46 37.501 59.61 19.427c1.27-1.907 1.401-3.926.453-6.954-.767-2.449-2.453-3.853-4.626-3.853-.684 0-3.013.418-3.582.677l-.185.082c-2.617 1.044-3.859 1.128-5.21 1.128-1.354 0-2.596-.084-5.212-1.128l-.194-.087c-.56-.254-2.888-.672-3.573-.672-2.173 0-3.859 1.405-4.626 3.853-.948 3.028-.817 5.047.453 6.954zM46.46 46.262L29.052 22.335c-2.184-3.24-2.54-6.862-1.12-11.398 1.442-4.604 5.1-7.464 9.55-7.464 1.175 0 4.27.474 5.756 1.156 1.844.73 2.453.73 3.221.73.768 0 1.378 0 3.222-.73 1.485-.682 4.58-1.156 5.756-1.156 4.449 0 8.108 2.86 9.55 7.464 1.42 4.536 1.064 8.158-1.12 11.398l-.054.076-17.354 23.85z"/>
        <path fill="#0029E7" d="M45.489 25.46c-.819 5.224-1.922 9.205-2.686 12.69a.98.98 0 0 0 .961 1.188h5.39a.98.98 0 0 0 .961-1.188c-.764-3.485-1.867-7.466-2.685-12.69-.174-1.11-1.768-1.11-1.941 0"/>
        <path fill="#0029E7" d="M45.446 37.017h2.026c-.103-.444-.211-.898-.32-1.361-.224-.945-.458-1.932-.693-2.974-.236 1.046-.47 2.037-.695 2.985l-.318 1.35zm3.708 4.642h-5.39a3.299 3.299 0 0 1-2.579-1.232 3.28 3.28 0 0 1-.655-2.772c.214-.976.455-1.989.707-3.056.645-2.72 1.375-5.805 1.954-9.498v-.002a3.29 3.29 0 0 1 3.268-2.792 3.29 3.29 0 0 1 3.269 2.794c.577 3.689 1.307 6.769 1.95 9.488.255 1.07.495 2.087.71 3.065a3.278 3.278 0 0 1-.654 2.772 3.297 3.297 0 0 1-2.58 1.233z"/>
        <path fill="#EC001D" d="M77.838 22.288c-.949-2.915-3.623-5.023-7.583-4.978-3.96.044-6.585 1.138-8.516 3.599L46.459 41.88l24.715 8.005c3.012.858 5.78.204 9.01-2.083 3.23-2.287 4.152-5.56 3.203-8.475-.292-.897-1.618-3.442-2.36-4.193-1.628-1.95-1.92-2.847-2.212-3.744-.292-.897-.584-1.794-.415-4.328.157-1.042-.27-3.878-.562-4.775"/>
        <path fill="#0029E7" d="M71.924 47.423c2.21.617 4.174.117 6.768-1.719 2.096-1.484 2.913-3.518 2.242-5.581-.212-.65-1.33-2.73-1.752-3.19l-.136-.15c-1.803-2.16-2.266-3.313-2.684-4.596-.418-1.283-.722-2.487-.536-5.294l.023-.214c.07-.608-.252-2.946-.463-3.595v-.001c-.664-2.037-2.487-3.2-5.009-3.2h-.093c-3.179.036-5.063.784-6.488 2.579L50.634 40.528l21.29 6.895zm1.742 5.4c-1.058 0-2.12-.155-3.2-.462l-.087-.027-28.095-9.1L59.71 19.323c2.414-3.075 5.756-4.532 10.517-4.586h.15c4.763 0 8.555 2.578 9.915 6.756.364 1.117.868 4.2.677 5.82-.126 1.978.062 2.555.3 3.283.237.73.425 1.307 1.69 2.83 1.17 1.261 2.565 4.134 2.881 5.107 1.375 4.223-.221 8.58-4.163 11.37-2.77 1.961-5.377 2.921-8.01 2.921z"/>
        <path fill="#0029E7" d="M62.04 36.052c-5.232.838-9.367 1.022-12.924 1.373a.98.98 0 0 0-.836 1.28l1.665 5.115a.983.983 0 0 0 1.43.545c3.085-1.802 6.539-4.08 11.265-6.47 1.004-.508.511-2.02-.6-1.843"/>
        <path fill="#0029E7" d="M62.41 38.344h-.004.003zM51.01 39.583l.627 1.923c.39-.234.787-.475 1.193-.722.833-.505 1.704-1.033 2.626-1.579-1.068.1-2.082.183-3.053.262-.475.039-.939.077-1.393.116zm-.128 7.238c-.397 0-.796-.072-1.178-.217a3.291 3.291 0 0 1-1.972-2.069l-1.665-5.113a3.282 3.282 0 0 1 .378-2.83 3.289 3.289 0 0 1 2.44-1.476c.997-.1 2.038-.185 3.136-.275 2.791-.23 5.955-.489 9.65-1.08l.001-.001A3.293 3.293 0 0 1 65.345 36a3.284 3.284 0 0 1-1.653 3.965c-3.34 1.689-6.052 3.335-8.445 4.786-.94.57-1.834 1.112-2.697 1.617-.515.3-1.089.453-1.667.453z"/>
        <path fill="#EC001D" d="M74.83 65.606c2.485-1.801 3.668-4.99 2.401-8.734-1.266-3.745-3.12-5.898-6.062-6.97l-24.71-8.02.008 25.929c.113 3.123 1.592 5.548 4.77 7.907 3.178 2.358 6.582 2.221 9.067.42.764-.554 2.78-2.599 3.267-3.534 1.356-2.15 2.12-2.703 2.885-3.258.765-.554 1.53-1.108 3.996-1.731 1.042-.173 3.614-1.454 4.378-2.009"/>
        <path fill="#0029E7" d="M49.046 67.76c.095 2.289 1.179 3.999 3.73 5.893 2.063 1.53 4.254 1.677 6.011.403.554-.402 2.193-2.106 2.501-2.649l.1-.175c1.503-2.38 2.459-3.176 3.553-3.968 1.092-.793 2.146-1.454 4.879-2.144l.209-.043c.6-.123 2.73-1.15 3.285-1.552 1.758-1.276 2.296-3.4 1.474-5.831-1.017-3.006-2.312-4.563-4.463-5.36l-21.286-6.91.007 22.337zm7.163 12.306c-2.206 0-4.466-.765-6.512-2.283-3.82-2.837-5.667-5.977-5.807-9.88l-.002-.091-.01-29.474 28.177 9.146c3.676 1.341 6.098 4.063 7.62 8.565 1.545 4.57.27 9.03-3.329 11.64-.952.69-3.734 2.121-5.338 2.44-1.922.492-2.414.849-3.036 1.299-.621.45-1.114.808-2.176 2.48-.8 1.424-3.026 3.623-3.977 4.312-1.7 1.232-3.634 1.846-5.61 1.846z"/>
        <path fill="#0029E7" d="M57.06 55.034c-2.416-4.707-3.869-8.575-5.303-11.842a.983.983 0 0 0-1.478-.398l-4.36 3.161a.979.979 0 0 0-.078 1.526c2.671 2.37 5.909 4.945 9.648 8.692.794.795 2.083-.14 1.57-1.139"/>
        <path fill="#0029E7" d="M48.646 46.847c.344.297.696.599 1.056.907.739.635 1.512 1.299 2.318 2.005-.426-.984-.82-1.923-1.196-2.822l-.538-1.279-1.64 1.189zm6.342 9.243l.002.003c0-.001 0-.002-.002-.003zm1.198 2.699a3.304 3.304 0 0 1-2.345-.98c-2.642-2.646-5.049-4.712-7.173-6.535a192.62 192.62 0 0 1-2.373-2.059 3.282 3.282 0 0 1-1.104-2.629 3.285 3.285 0 0 1 1.361-2.508l4.36-3.161a3.3 3.3 0 0 1 2.813-.516c.97.262 1.759.94 2.163 1.86.4.914.803 1.874 1.227 2.885 1.082 2.58 2.307 5.503 4.015 8.83a3.282 3.282 0 0 1-.999 4.178 3.305 3.305 0 0 1-1.945.635z"/>
        <path fill="#EC001D" d="M32.614 76.138c2.485 1.801 5.89 1.938 9.067-.42 3.178-2.36 4.657-4.784 4.77-7.907l.008-25.93-24.71 8.02c-2.942 1.073-4.796 3.226-6.062 6.97-1.266 3.745-.084 6.934 2.401 8.735.765.555 3.336 1.836 4.378 2.009 2.467.623 3.232 1.177 3.996 1.731.765.555 1.53 1.109 2.885 3.258.487.935 2.503 2.98 3.267 3.534"/>
        <path fill="#0029E7" d="M34.13 74.056c1.758 1.274 3.948 1.128 6.012-.404 2.55-1.893 3.635-3.603 3.73-5.892l.008-22.335-21.286 6.909c-2.152.797-3.447 2.354-4.463 5.36-.822 2.43-.285 4.555 1.473 5.83.554.402 2.684 1.43 3.297 1.554l.198.042c2.73.689 3.783 1.35 4.878 2.143 1.097.796 2.052 1.591 3.553 3.969l.105.185c.303.533 1.94 2.236 2.495 2.639m2.579 6.01c-1.977 0-3.91-.614-5.611-1.847-.951-.69-3.176-2.888-3.975-4.31-1.062-1.672-1.555-2.03-2.176-2.48-.623-.452-1.116-.809-3.037-1.3-1.605-.319-4.387-1.75-5.338-2.44-3.599-2.61-4.875-7.07-3.329-11.64 1.523-4.502 3.944-7.224 7.62-8.564l.088-.03 28.089-9.117-.011 29.566c-.143 3.904-1.988 7.042-5.809 9.879-2.045 1.519-4.305 2.283-6.511 2.283"/>
        <path fill="#0029E7" d="M37.429 56.172c3.74-3.747 6.977-6.32 9.648-8.691a.979.979 0 0 0-.078-1.526l-4.36-3.16a.983.983 0 0 0-1.478.397c-1.434 3.267-2.887 7.135-5.302 11.842-.513.999.776 1.934 1.57 1.138"/>
        <path fill="#0029E7" d="M42.632 45.658c-.178.421-.358.85-.542 1.29-.376.896-.768 1.831-1.191 2.812.804-.706 1.575-1.368 2.313-2.001l1.06-.911-1.64-1.19zm-5.9 13.131a3.307 3.307 0 0 1-1.945-.635 3.282 3.282 0 0 1-.998-4.177c1.705-3.323 2.929-6.243 4.01-8.82.425-1.016.83-1.98 1.233-2.896a3.287 3.287 0 0 1 2.163-1.861 3.306 3.306 0 0 1 2.813.518l4.358 3.16a3.285 3.285 0 0 1 1.362 2.508 3.28 3.28 0 0 1-1.106 2.629c-.748.665-1.54 1.346-2.377 2.062-2.122 1.822-4.527 3.887-7.167 6.533a3.305 3.305 0 0 1-2.346.979z"/>
        <path fill="#EC001D" d="M9.531 39.328c-.949 2.915-.027 6.188 3.203 8.475s5.998 2.941 9.01 2.083l24.715-8.005L31.18 20.91c-1.931-2.46-4.556-3.555-8.516-3.6-3.96-.044-6.634 2.064-7.583 4.979-.292.897-.719 3.733-.561 4.775.168 2.534-.124 3.43-.416 4.328-.292.897-.584 1.793-2.212 3.744-.742.751-2.067 3.296-2.36 4.193"/>
        <path fill="#0029E7" d="M11.984 40.123c-.67 2.063.146 4.097 2.242 5.581 2.594 1.837 4.557 2.335 6.769 1.72l21.289-6.896-13.161-18.066c-1.426-1.795-3.31-2.543-6.489-2.579h-.094c-2.521 0-4.343 1.163-5.007 3.2-.212.65-.533 2.988-.462 3.607l.021.203c.187 2.805-.118 4.01-.537 5.294-.415 1.281-.878 2.435-2.684 4.596l-.143.158c-.414.452-1.532 2.533-1.744 3.182m7.269 12.7c-2.634 0-5.24-.959-8.011-2.92-3.943-2.793-5.538-7.15-4.164-11.37h.001c.363-1.117 1.77-3.908 2.88-5.106 1.267-1.525 1.454-2.102 1.69-2.83.24-.73.427-1.308.302-3.285-.192-1.62.313-4.703.677-5.82 1.36-4.177 5.151-6.757 9.915-6.757l.148.001c4.762.054 8.105 1.51 10.518 4.586l.056.073 17.37 23.84-28.183 9.126a11.617 11.617 0 0 1-3.2.462"/>
        <path fill="#0029E7" d="M30.278 37.894c4.727 2.391 8.18 4.669 11.265 6.47a.983.983 0 0 0 1.43-.544l1.665-5.115a.98.98 0 0 0-.835-1.28c-3.558-.351-7.693-.535-12.925-1.373-1.11-.178-1.603 1.335-.6 1.842"/>
        <path fill="#0029E7" d="M37.461 39.205c.922.546 1.793 1.074 2.625 1.579.407.246.804.488 1.194.722l.626-1.923c-.454-.039-.918-.077-1.392-.116-.972-.08-1.986-.163-3.053-.262m4.575 7.616a3.304 3.304 0 0 1-1.668-.454c-.864-.504-1.757-1.045-2.698-1.616-2.393-1.452-5.105-3.097-8.444-4.786A3.284 3.284 0 0 1 27.572 36a3.299 3.299 0 0 1 3.672-2.24c3.696.592 6.86.852 9.65 1.08 1.098.091 2.14.177 3.137.276a3.29 3.29 0 0 1 2.442 1.478 3.28 3.28 0 0 1 .375 2.83l-1.664 5.113a3.291 3.291 0 0 1-1.97 2.067 3.323 3.323 0 0 1-1.18.217"/>
        <path fill="#FFF" d="M46.339 23.681c-14.947 0-27.64 17.382-32.191 24.464-1.07 1.665-.747 4.072.708 5.243 2.556 2.058 6.813 4.756 11.57 4.756 8.473 0 14.638-3.816 19.747-3.816h.332c5.108 0 11.273 3.816 19.746 3.816 4.757 0 9.015-2.698 11.57-4.756 1.455-1.17 1.779-3.578.709-5.243-4.551-7.082-17.244-24.464-32.191-24.464"/>
        <path fill="#0029E7" d="M46.339 51.754h.1c2.677 0 5.368.806 8.216 1.659 3.378 1.011 7.206 2.157 11.596 2.157 3.93 0 7.58-2.276 9.952-4.184.39-.316.542-1.25.156-1.852-3.51-5.461-16.046-23.28-30.02-23.28-13.975 0-26.51 17.819-30.02 23.28-.387.601-.235 1.536.157 1.852 2.37 1.908 6.023 4.184 9.95 4.184 4.391 0 8.22-1.146 11.597-2.157 2.848-.853 5.538-1.658 8.15-1.658h.166zm19.912 8.963c-5.147 0-9.545-1.316-13.078-2.374-2.583-.773-4.814-1.441-6.668-1.441h-.333c-1.854 0-4.084.668-6.667 1.441-3.533 1.058-7.93 2.374-13.079 2.374-5.433 0-10.17-2.896-13.19-5.325-2.474-1.993-3.039-5.867-1.26-8.636 4.957-7.712 18.225-25.648 34.363-25.648 16.138 0 29.406 17.936 34.362 25.648 1.78 2.77 1.214 6.643-1.26 8.635-3.018 2.43-7.755 5.326-13.19 5.326z"/>
        <path fill="#FFF" d="M59.89 37.203c0 7.468-6.067 13.522-13.551 13.522s-13.551-6.054-13.551-13.522 6.067-13.522 13.55-13.522c7.485 0 13.552 6.054 13.552 13.522"/>
        <path fill="#0029E7" d="M46.339 26.255c-6.05 0-10.972 4.911-10.972 10.948 0 6.037 4.922 10.948 10.972 10.948s10.972-4.911 10.972-10.948c0-6.037-4.922-10.948-10.972-10.948m0 27.044c-8.894 0-16.13-7.22-16.13-16.096 0-8.875 7.236-16.096 16.13-16.096 8.894 0 16.13 7.22 16.13 16.096 0 8.875-7.236 16.096-16.13 16.096"/>
        <path fill="#FFF" d="M58.472 31.983c0 4.149-3.37 7.512-7.528 7.512-4.157 0-7.528-3.363-7.528-7.512 0-4.149 3.37-7.512 7.528-7.512 4.158 0 7.528 3.363 7.528 7.512"/>
        <path fill="#0029E7" d="M50.945 27.044c-2.73 0-4.95 2.216-4.95 4.939s2.22 4.938 4.95 4.938c2.728 0 4.948-2.215 4.948-4.938s-2.22-4.939-4.948-4.939m0 15.024c-5.573 0-10.107-4.525-10.107-10.085 0-5.561 4.534-10.086 10.107-10.086 5.572 0 10.106 4.525 10.106 10.086 0 5.56-4.534 10.085-10.106 10.085"/>
        <g>
            <g transform="translate(111 31.403)">
                <mask id="d" fill="#fff">
                    <use xlink:href="#c"/>
                </mask>
                <path fill="#0029E7" d="M12.754.045h4.402c.387 0 .634.174.493.697L11.38 25.454c-.14.592-.352.696-.915.696H7.189c-.563 0-.775-.104-.916-.696L.04.742C-.1.219.146.045.533.045h4.402c.458 0 .74.174.846.697l2.852 13.505c.035.243.388.243.423 0L11.908.742c.106-.523.388-.697.846-.697" mask="url(#d)"/>
            </g>
            <path fill="#0029E7" d="M131.19 32.18c0-.523.21-.732.738-.732h4.262c.528 0 .74.209.74.732v24.643c0 .522-.212.73-.74.73h-4.262c-.528 0-.739-.208-.739-.73V32.18zM140.56 32.18c0-.523.21-.732.739-.732h4.261c.529 0 .74.209.74.732v24.643c0 .522-.211.73-.74.73H141.3c-.528 0-.74-.208-.74-.73V32.18z"/>
            <g transform="translate(148.983 31.002)">
                <mask id="f" fill="#fff">
                    <use xlink:href="#e"/>
                </mask>
                <path fill="#0029E7" d="M8.024 26.9c-4.472 0-7.96-2.889-7.995-7.692 0-.348.036-.627.459-.627h4.19c.388 0 .6.174.634.557.106 1.148.74 2.993 2.712 2.993 1.303 0 2.113-.8 2.254-1.984.563-4.281-9.86-6.022-9.86-13.296C.417 3.022 3.127.1 7.741.1c4.966 0 7.325 3.203 7.396 7.309 0 .349-.035.627-.458.627h-4.19c-.388 0-.6-.174-.635-.558-.14-1.078-.563-2.575-1.972-2.575-1.198 0-1.867.975-1.69 2.019.633 3.307 9.86 5.848 9.86 12.878 0 5.047-4.578 7.1-8.03 7.1" mask="url(#f)"/>
            </g>
            <path fill="#0029E7" d="M181.17 32.18v3.584c0 .522-.21.732-.738.732h-3.17c-.529 0-.67.14-.67.661v19.666c0 .522-.21.73-.739.73h-4.261c-.528 0-.74-.208-.74-.73V37.157c0-.522-.141-.66-.67-.66h-3.169c-.528 0-.74-.21-.74-.733V32.18c0-.523.212-.732.74-.732h13.419c.528 0 .739.209.739.732M187.796 48.921h2.36c.21 0 .316-.139.28-.382l-1.232-6.057c-.036-.244-.388-.244-.423 0l-1.267 6.057c-.035.243.106.382.282.382zm-1.445-16.776c.106-.592.352-.697.915-.697h3.417c.563 0 .81.105.95.697l6.129 24.713c.14.522-.141.695-.528.695h-4.367c-.458 0-.704-.139-.845-.695l-.564-2.402c-.106-.453-.247-.488-.704-.488h-3.523c-.457 0-.598.035-.704.488l-.598 2.402c-.141.556-.387.695-.845.695h-4.367c-.389 0-.67-.173-.53-.695l6.164-24.713zM211.676 32.18v3.584c0 .522-.21.732-.739.732h-3.17c-.528 0-.669.14-.669.661v19.666c0 .522-.211.73-.74.73h-4.26c-.529 0-.741-.208-.741-.73V37.157c0-.522-.14-.66-.669-.66h-3.169c-.528 0-.74-.21-.74-.733V32.18c0-.523.212-.732.74-.732h13.418c.528 0 .74.209.74.732M230.065 32.18v24.643c0 .522-.211.73-.74.73h-4.26c-.529 0-.741-.208-.741-.73v-9.258c0-.523-.141-.663-.669-.663h-3.416c-.529 0-.67.14-.67.663v9.258c0 .522-.21.73-.739.73h-4.261c-.528 0-.74-.208-.74-.73V32.18c0-.523.212-.732.74-.732h4.261c.528 0 .74.209.74.732v9.015c0 .522.14.66.67.66h3.415c.528 0 .669-.138.669-.66V32.18c0-.523.212-.732.74-.732h4.262c.528 0 .739.209.739.732M239.578 48.921h2.36c.211 0 .317-.139.282-.382l-1.234-6.057c-.035-.244-.387-.244-.422 0l-1.267 6.057c-.035.243.105.382.281.382zm-1.444-16.776c.106-.592.352-.697.915-.697h3.417c.563 0 .81.105.95.697l6.129 24.713c.14.522-.141.695-.528.695h-4.367c-.458 0-.704-.139-.845-.695l-.565-2.402c-.105-.453-.246-.488-.704-.488h-3.522c-.458 0-.598.035-.704.488l-.598 2.402c-.141.556-.388.695-.845.695H232.5c-.389 0-.67-.173-.53-.695l6.164-24.713zM269.347 52.531c1.378 0 2.438-1.082 2.438-2.863v-.349c0-1.85-1.025-2.863-2.438-2.863h-1.095c-.53 0-.672.14-.672.663v4.75c0 .523.142.662.672.662h1.095zm.035-11.138c1.025 0 1.908-.907 1.908-2.339v-.28c0-1.43-.848-2.304-1.908-2.304h-1.13c-.53 0-.672.14-.672.803v3.457c0 .524.142.663.672.663h1.13zm-7.56 15.468v-24.72c0-.524.212-.734.742-.734h7.701c3.851 0 6.642 3.143 6.642 6.6v.349c0 2.374-1.272 4.539-2.861 5.551 2.19 1.013 3.497 3.527 3.497 6.18v.384c0 3.876-2.755 7.123-7.207 7.123h-7.772c-.53 0-.742-.21-.742-.733zM286.728 43.663h.884c1.377 0 2.543-1.048 2.543-3.212v-.769c0-2.164-1.166-3.212-2.543-3.212h-.884c-.53 0-.67.14-.67.664V43c0 .523.14.663.67.663m9.857 13.931h-4.628c-.46 0-.742-.14-.883-.489l-3.144-8.065h-1.202c-.53 0-.67.14-.67.663v7.158c0 .524-.213.733-.743.733h-4.275c-.53 0-.741-.21-.741-.733v-24.72c0-.524.211-.734.741-.734h7.207c4.381 0 7.667 3.352 7.667 8.275v1.048c0 2.863-1.13 5.237-2.932 6.704l3.921 9.462c.177.419.035.698-.318.698M305.099 41.184c0 .524.141.663.67.663h5.053c.53 0 .742.21.742.734v3.596c0 .524-.212.733-.742.733h-5.052c-.53 0-.671.14-.671.663v4.295c0 .524.141.663.67.663h5.053c.53 0 .742.21.742.734v3.596c0 .524-.212.733-.742.733h-10.74c-.53 0-.742-.21-.742-.733v-24.72c0-.524.212-.733.742-.733h10.74c.53 0 .742.209.742.733v3.596c0 .524-.212.733-.742.733h-5.052c-.53 0-.671.14-.671.664v4.05zM318.982 56.896l-4.981-24.79c-.106-.559.07-.698.494-.698h4.416c.46 0 .742.14.848.698l1.944 11.452c.035.245.388.28.423.035l2.58-11.487c.14-.594.353-.698.918-.698h2.084c.566 0 .778.104.919.698l2.544 11.487c.07.244.388.21.424-.035l1.978-11.452c.106-.559.389-.698.848-.698h4.38c.425 0 .601.14.495.698l-4.946 24.79c-.106.594-.318.698-.918.698h-2.791c-.566 0-.778-.14-.919-.698l-2.861-12.605c-.071-.244-.354-.244-.424 0l-2.827 12.605c-.141.558-.353.698-.918.698H319.9c-.6 0-.813-.104-.919-.698M347.668 41.184c0 .524.142.663.672.663h5.052c.53 0 .742.21.742.734v3.596c0 .524-.212.733-.742.733h-5.052c-.53 0-.672.14-.672.663v4.295c0 .524.142.663.672.663h5.052c.53 0 .742.21.742.734v3.596c0 .524-.212.733-.742.733h-10.74c-.53 0-.742-.21-.742-.733v-24.72c0-.524.212-.733.742-.733h10.74c.53 0 .742.209.742.733v3.596c0 .524-.212.733-.742.733h-5.052c-.53 0-.672.14-.672.664v4.05zM364.025 43.663h.883c1.378 0 2.544-1.048 2.544-3.212v-.769c0-2.164-1.166-3.212-2.544-3.212h-.883c-.53 0-.671.14-.671.664V43c0 .523.141.663.671.663m9.857 13.931h-4.628c-.46 0-.742-.14-.884-.489l-3.144-8.065h-1.201c-.53 0-.671.14-.671.663v7.158c0 .524-.212.733-.742.733h-4.275c-.53 0-.742-.21-.742-.733v-24.72c0-.524.212-.734.742-.734h7.207c4.38 0 7.666 3.352 7.666 8.275v1.048c0 2.863-1.13 5.237-2.932 6.704l3.922 9.462c.176.419.035.698-.318.698M390.945 32.106l-5.653 15.467v9.288c0 .524-.212.733-.742.733h-4.274c-.53 0-.742-.21-.742-.733v-9.288l-5.618-15.467c-.176-.42.036-.699.424-.699h4.416c.46 0 .742.21.919.699l2.544 7.786c.07.21.353.21.424 0l2.543-7.786c.142-.489.46-.699.919-.699h4.416c.389 0 .565.28.424.699"/>
        </g>
    </g>
</svg>
