<svg xmlns="http://www.w3.org/2000/svg" xmlns:xlink="http://www.w3.org/1999/xlink" width="660" height="459" viewBox="0 0 660 459">
    <defs>
        <path id="a" d="M0 .512H659.42v637.722H0z"/>
    </defs>
    <g fill="none" fill-rule="evenodd">
        <g>
            <mask id="b" fill="#fff">
                <use xlink:href="#a"/>
            </mask>
            <path fill="#FFF" d="M329.71 638.234c-14.897 0-27.85-9.016-33.004-22.972-3-8.124-6.726-16.796-11.413-26.528-8.187 2.227-16.526 3.37-24.78 3.37-19.314 0-37.947-6.11-53.885-17.67-8.083-5.866-26.359-23.295-34.648-37.605-4.849-7.594-6.173-8.555-9.01-10.614-2.834-2.054-4.158-3.015-12.892-5.27-16.232-3.455-38.482-15.434-46.55-21.292-15.105-10.958-26.362-25.838-32.547-43.024-3.313-9.202-5.133-18.977-5.442-28.994-11.952-1.688-22.306-2.674-31.726-3.042-14.865-.579-27.444-10.087-32.046-24.222-4.609-14.155-.025-29.25 11.68-38.458 7.094-5.582 14.518-12.102 22.735-19.984-13.806-22.944-17.15-50.056-8.71-75.984l1.813-5.568.478-.469c4.617-11.053 13.681-28.335 22.835-38.494 5.734-6.94 6.235-8.484 7.311-11.79 1.092-3.352 1.6-4.908 1.051-13.914-1.72-16.469 2.81-41.29 5.9-50.762 8.785-27 28.414-47.363 54.41-57.445-2.232-13.193-4.658-24.3-7.427-34.097-3.02-10.675-.93-21.84 5.735-30.631 6.67-8.8 17.2-14.053 28.17-14.053 6.917 0 13.657 2.059 19.492 5.953 8.312 5.547 17.891 11.152 29.422 17.192C214.24 11.921 238.911.512 265.998.512c9.98 0 35.029 3.37 50.175 10.09 8.401 3.303 10.036 3.303 13.537 3.303 3.503 0 5.137 0 13.538-3.303 15.146-6.72 40.195-10.09 50.175-10.09 27.088 0 51.758 11.408 69.334 31.355 11.53-6.04 21.11-11.645 29.422-17.192 5.836-3.894 12.575-5.953 19.492-5.953 10.97 0 21.501 5.254 28.17 14.053 6.664 8.79 8.756 19.956 5.735 30.632-2.77 9.796-5.195 20.9-7.426 34.095 25.998 10.083 45.628 30.448 54.417 57.459 3.083 9.459 7.614 34.279 5.894 50.749-.548 9.012-.043 10.563 1.037 13.885 1.078 3.313 1.583 4.864 7.314 11.807 10.94 12.142 22.13 35.31 25.134 44.543 8.436 25.93 5.093 53.042-8.71 75.983 8.22 7.884 15.645 14.404 22.738 19.985 11.703 9.209 16.287 24.304 11.678 38.459-4.601 14.134-17.18 23.642-32.046 24.22-9.42.369-19.774 1.355-31.726 3.043-.31 10.018-2.13 19.795-5.443 28.996-5.962 16.568-16.639 30.99-30.937 41.83l-.097.096-1.531 1.112c-8.076 5.855-30.324 17.823-46.525 21.276-8.747 2.26-10.065 3.216-12.892 5.266-2.837 2.06-4.16 3.02-9.017 10.623-8.304 14.33-26.584 31.753-34.657 37.608-15.933 11.554-34.564 17.663-53.878 17.663-8.254 0-16.592-1.144-24.777-3.369-4.688 9.733-8.412 18.403-11.411 26.526-5.156 13.956-18.11 22.972-33.005 22.972" mask="url(#b)"/>
        </g>
        <path fill="#0029E7" d="M631.694 381.916c-12.342-9.721-25.229-21.772-39.704-36.72 19.156-19.44 25.95-45.472 17.71-70.827-2.25-6.921-12.16-27.356-20.47-36.324-8.98-10.834-10.32-14.945-12.005-20.13-1.682-5.178-3.017-9.284-2.127-23.35 1.36-11.528-2.223-33.455-4.809-41.398-8.5-26.151-30.376-43.486-58.558-47.273 3.093-22.96 6.63-41.947 11.26-58.343 2.83-10.022-8.415-18.186-17.078-12.399-13.829 9.239-30.322 18.247-50.524 28.001C442.752 39.276 420.228 25 393.766 25c-8.351 0-30.334 3.372-40.884 8.223-13.098 5.194-17.428 5.194-22.881 5.194-5.458 0-9.783 0-22.882-5.194C296.57 28.372 274.588 25 266.236 25c-26.462 0-48.986 14.276-61.625 38.152-20.203-9.753-36.694-18.761-50.524-28-8.663-5.787-19.91 2.377-17.078 12.399 4.632 16.396 8.167 35.384 11.26 58.343-28.18 3.787-50.056 21.125-58.556 47.273-2.586 7.943-6.169 29.87-4.81 41.397.89 14.056-.443 18.167-2.136 23.367-1.681 5.174-3.01 9.28-12.006 20.123-7.88 8.525-17.878 28.372-20.459 36.315l-.005.005c-8.241 25.344-1.449 51.376 17.714 70.82-14.475 14.95-27.362 27-39.705 36.722-8.201 6.459-3.941 19.67 6.492 20.076 16.423.64 34.823 2.992 56.558 6.882-6.219 28.928 3.419 56.208 26.37 72.875 6.752 4.908 26.516 15.092 37.914 17.364 13.646 3.49 17.142 6.027 21.568 9.24 4.416 3.208 7.917 5.751 15.456 17.637 5.678 10.123 21.476 25.756 28.232 30.665 12.077 8.77 25.811 13.132 39.851 13.132 12.152 0 24.53-3.284 36.252-9.79 9.642 18.195 17.05 34.027 22.443 48.644 3.62 9.812 17.496 9.812 21.116 0 5.393-14.617 12.801-30.449 22.442-48.643 11.722 6.505 24.098 9.789 36.25 9.789 14.035 0 27.772-4.362 39.845-13.127 6.757-4.903 22.56-20.542 28.243-30.67 7.549-11.896 11.045-14.434 15.46-17.642 4.412-3.203 7.908-5.74 21.564-9.235 11.388-2.272 31.152-12.456 37.908-17.36l.005-.004c22.947-16.662 32.584-43.943 26.37-72.875 21.734-3.89 40.134-6.242 56.557-6.882 10.434-.407 14.693-13.617 6.492-20.076"/>
        <path fill="#0029E7" d="M304.804 405.106l-23.6 121.472a11.34 11.34 0 0 0 1.278 7.728c16.547 29.182 28.323 52.5 36.006 73.357 3.605 9.783 17.42 9.783 21.022 0 7.685-20.856 19.46-44.175 36.007-73.357a11.34 11.34 0 0 0 1.28-7.728l-23.602-121.472A11.246 11.246 0 0 0 342.157 396h-26.314a11.248 11.248 0 0 0-11.04 9.106M217.183 306.084l-123.14 14.997a11.383 11.383 0 0 0-6.972 3.588c-22.69 24.636-41.27 42.954-58.77 56.642-8.192 6.407-3.937 19.511 6.486 19.915 22.273.862 48.164 4.844 81.13 11.544a11.44 11.44 0 0 0 7.765-1.165l108.504-59.696c4.724-2.598 6.93-8.155 5.26-13.253l-8.158-24.919c-1.67-5.098-6.745-8.306-12.105-7.653M284.943 191.384l-52.41-112.609a11.372 11.372 0 0 0-5.592-5.523c-30.623-13.932-53.918-25.92-72.442-38.324-8.651-5.793-19.881 2.38-17.054 12.412 6.052 21.482 10.235 47.38 13.999 80.86a11.39 11.39 0 0 0 3.515 7.035l90.714 84.73a11.264 11.264 0 0 0 14.322.877L281.35 205.3a11.312 11.312 0 0 0 3.594-13.916M414.327 219.964l90.713-84.729a11.378 11.378 0 0 0 3.515-7.034c3.765-33.48 7.947-59.38 14-80.86 2.826-10.032-8.404-18.206-17.054-12.413-18.525 12.404-41.82 24.393-72.443 38.325a11.376 11.376 0 0 0-5.592 5.522l-52.409 112.609a11.312 11.312 0 0 0 3.594 13.916l21.354 15.542a11.264 11.264 0 0 0 14.322-.878M427.814 351.91l108.503 59.695a11.443 11.443 0 0 0 7.767 1.165c32.965-6.7 58.856-10.682 81.13-11.544 10.422-.404 14.677-13.508 6.485-19.915-17.5-13.688-36.08-32.006-58.77-56.642a11.39 11.39 0 0 0-6.973-3.588l-123.139-14.997c-5.36-.653-10.436 2.555-12.105 7.654l-8.158 24.918c-1.67 5.098.536 10.655 5.26 13.253"/>
        <path fill="#EC001D" d="M266.403 43c-21.757 0-41.84 13.368-50.208 40.105-8.368 26.737-6.728 46.79 5.657 65.171L330 297l108.148-148.724c12.385-18.381 14.025-38.434 5.657-65.171C435.437 56.368 415.354 43 393.596 43c-6.694 0-26.777 3.342-33.471 6.684-16.737 6.684-23.43 6.684-30.125 6.684s-13.389 0-30.125-6.684C293.18 46.342 273.097 43 266.403 43"/>
        <path fill="#0029E7" d="M236.175 138.35L329.5 266.76l93.325-128.41c9.018-13.55 9.943-27.896 3.212-49.41-5.439-17.397-17.404-27.371-32.826-27.371-4.857 0-21.381 2.97-25.42 4.806l-1.313.586c-18.568 7.419-27.382 8.01-36.978 8.01-9.6 0-18.42-.591-36.983-8.014l-1.379-.617c-3.967-1.801-20.492-4.771-25.349-4.771-15.422 0-27.387 9.98-32.831 27.371-6.731 21.514-5.801 35.86 3.217 49.41zM329.5 329L205.97 159.01c-15.5-23.017-18.028-48.75-7.952-80.978C208.251 45.321 234.218 25 265.789 25c8.344 0 30.309 3.368 40.848 8.214 13.089 5.188 17.409 5.188 22.863 5.188 5.448 0 9.774 0 22.863-5.188C362.903 28.368 384.867 25 393.21 25c31.57 0 57.537 20.32 67.766 53.032 10.08 32.223 7.558 57.956-7.946 80.979l-.378.541L329.5 329z"/>
        <path fill="#0029E7" d="M323.142 180.88c-5.783 36.938-13.58 65.083-18.979 89.718-.948 4.325 2.358 8.402 6.793 8.402h38.088c4.434 0 7.74-4.077 6.793-8.402-5.4-24.635-13.195-52.78-18.98-89.718-1.227-7.84-12.488-7.84-13.715 0"/>
        <path fill="#0029E7" d="M322.33 263.9h14.341c-.734-3.17-1.497-6.4-2.272-9.708-1.583-6.734-3.238-13.774-4.899-21.204-1.67 7.46-3.33 14.526-4.92 21.286-.768 3.277-1.521 6.483-2.25 9.626zm26.242 33.1H310.43c-7.13 0-13.78-3.2-18.251-8.782-4.461-5.571-6.152-12.781-4.635-19.771 1.513-6.958 3.214-14.179 5-21.787 4.564-19.402 9.733-41.396 13.827-67.736v-.01C308.169 167.372 317.895 159 329.5 159h.005c11.605 0 21.332 8.382 23.125 19.93 4.088 26.299 9.253 48.266 13.804 67.652 1.799 7.635 3.499 14.886 5.017 21.86a23.514 23.514 0 0 1-4.624 19.77C362.362 293.8 355.706 297 348.572 297z"/>
        <path fill="#EC001D" d="M553.043 157.369c-6.746-20.707-25.75-35.68-53.9-35.364-28.148.317-46.805 8.089-60.533 25.568L330 296.56l175.677 56.867c21.409 6.094 41.083 1.444 64.042-14.8 22.959-16.245 29.509-39.5 22.762-60.205-2.075-6.372-11.496-24.45-16.767-29.787-11.578-13.857-13.653-20.228-15.729-26.6-2.075-6.371-4.151-12.742-2.952-30.74 1.118-7.406-1.915-27.555-3.99-33.926"/>
        <path fill="#0029E7" d="M509.98 336.58c15.66 4.383 29.572.832 47.946-12.232 14.85-10.561 20.642-25.035 15.885-39.714-1.5-4.619-9.416-19.425-12.409-22.695l-.963-1.073c-12.775-15.363-16.058-23.568-19.015-32.698-2.962-9.126-5.119-17.694-3.799-37.665l.164-1.522c.49-4.327-1.784-20.963-3.283-25.582l-.005-.005c-4.695-14.495-17.614-22.772-35.477-22.772-.22 0-.438 0-.663.005-22.517.255-35.864 5.575-45.963 18.347l-93.241 128.541L509.98 336.58zM522.322 375c-7.495 0-15.019-1.104-22.666-3.29l-.622-.19L300 306.779l123.447-170.146c17.099-21.877 40.773-32.244 74.507-32.627.346-.005.703-.005 1.055-.005 33.748 0 60.61 18.346 70.244 48.077 2.58 7.945 6.153 29.879 4.797 41.41-.886 14.071.444 18.178 2.122 23.359 1.682 5.186 3.017 9.298 11.974 20.136 8.29 8.97 18.174 29.412 20.418 36.336 9.737 30.046-1.57 61.043-29.492 80.898C559.446 368.168 540.976 375 522.322 375z"/>
        <path fill="#0029E7" d="M439.893 256.102c-37.093 5.941-66.408 7.242-91.623 9.736-4.428.437-7.298 4.85-5.924 9.073l11.806 36.27c1.375 4.224 6.295 6.108 10.135 3.865 21.869-12.778 46.35-28.926 79.858-45.881 7.11-3.6 3.62-14.324-4.252-13.063"/>
        <path fill="#0029E7" d="M443.861 271.837h-.022.022zm-81.392 8.791l4.476 13.654c2.78-1.667 5.617-3.374 8.515-5.127 5.95-3.583 12.169-7.334 18.757-11.207-7.627.703-14.872 1.295-21.804 1.86-3.392.275-6.701.545-9.944.82zM361.55 332a23.86 23.86 0 0 1-8.41-1.538c-6.727-2.54-11.861-7.89-14.081-14.684l-11.89-36.291c-2.226-6.794-1.24-14.112 2.697-20.08 3.932-5.963 10.283-9.785 17.425-10.483 7.123-.704 14.558-1.31 22.4-1.952 19.927-1.626 42.517-3.466 68.908-7.665l.005-.005c11.588-1.835 22.605 4.846 26.222 15.895 3.618 11.045-1.346 22.883-11.802 28.143-23.849 11.987-43.217 23.668-60.307 33.972-6.717 4.047-13.094 7.89-19.26 11.472A23.651 23.651 0 0 1 361.55 332z"/>
        <path fill="#EC001D" d="M531.322 465.569c17.632-12.8 26.024-35.456 17.038-62.061-8.984-26.605-22.138-41.902-43.015-49.523L330 297l.057 184.23c.804 22.194 11.299 39.42 33.847 56.18 22.548 16.758 46.707 15.785 64.339 2.986 5.425-3.939 19.73-18.463 23.184-25.112 9.622-15.266 15.048-19.204 20.473-23.143 5.425-3.938 10.85-7.876 28.354-12.301 7.396-1.229 25.643-10.333 31.068-14.271"/>
        <path fill="#0029E7" d="M347.585 481.714c.672 16.233 8.344 28.362 26.405 41.799 14.606 10.855 30.12 11.894 42.56 2.857 3.923-2.852 15.524-14.94 17.704-18.79l.714-1.243c10.632-16.88 17.403-22.525 25.146-28.147 7.734-5.625 15.197-10.316 34.542-15.21l1.482-.306c4.254-.872 19.33-8.16 23.258-11.008 12.445-9.046 16.251-24.119 10.433-41.36-7.199-21.323-16.364-32.366-31.597-38.025l-150.698-49.007.05 158.44zM398.296 569c-15.62 0-31.617-5.42-46.102-16.194-27.051-20.124-40.12-42.394-41.118-70.079l-.01-.651L311 273l199.48 64.884c26.028 9.509 43.172 28.814 53.951 60.752 10.939 32.421 1.907 64.058-23.567 82.564l-.005.004c-6.735 4.89-26.436 15.048-37.787 17.314-13.613 3.484-17.097 6.016-21.494 9.21-4.402 3.199-7.886 5.73-15.411 17.593-5.666 10.101-21.418 25.698-28.153 30.588C425.98 564.65 412.286 569 398.296 569z"/>
        <path fill="#0029E7" d="M405.167 391.738c-17.19-33.609-27.525-61.226-37.733-84.554-1.792-4.096-6.901-5.468-10.515-2.84l-31.027 22.571c-3.614 2.63-3.89 7.92-.553 10.892 19.004 16.929 42.043 35.306 68.654 62.06 5.649 5.677 14.821-.996 11.174-8.13"/>
        <path fill="#0029E7" d="M345.824 332.459c2.446 2.104 4.948 4.24 7.507 6.425 5.256 4.494 10.752 9.19 16.483 14.193-3.024-6.97-5.823-13.614-8.505-19.978-1.3-3.086-2.57-6.105-3.822-9.053l-11.663 8.413zm45.1 65.433c.008.007.008.014.014.021-.006-.007-.006-.014-.014-.02zm8.52 19.108c-6.064 0-12.082-2.348-16.677-6.934-18.786-18.737-35.904-33.362-51.01-46.269-5.932-5.067-11.555-9.877-16.872-14.573-5.353-4.733-8.209-11.514-7.856-18.611.358-7.106 3.885-13.577 9.683-17.756l31-22.377a23.556 23.556 0 0 1 20.004-3.655c6.903 1.856 12.512 6.66 15.383 13.166 2.85 6.471 5.716 13.268 8.73 20.43 7.692 18.26 16.407 38.954 28.55 62.51 5.322 10.33 2.334 22.769-7.103 29.576A23.575 23.575 0 0 1 399.444 417z"/>
        <path fill="#EC001D" d="M230.757 540.396c17.632 12.8 41.791 13.772 64.339-2.986 22.548-16.76 33.044-33.986 33.847-56.18L329 297l-175.345 56.985c-20.876 7.62-34.03 22.918-43.016 49.523-8.984 26.605-.592 49.26 17.04 62.06 5.425 3.94 23.671 13.043 31.068 14.272 17.504 4.425 22.93 8.363 28.354 12.301 5.425 3.939 10.85 7.877 20.472 23.143 3.454 6.649 17.76 21.173 23.184 25.112"/>
        <path fill="#0029E7" d="M241.446 526.37c12.446 9.036 27.949 8.003 42.56-2.862 18.06-13.432 25.733-25.56 26.41-41.799l.052-158.434-150.698 49.007c-15.233 5.658-24.398 16.702-31.597 38.029-5.817 17.236-2.017 32.31 10.435 41.356 3.917 2.847 18.997 10.136 23.338 11.017l1.4.295c19.33 4.89 26.788 9.581 34.536 15.206 7.765 5.643 14.53 11.287 25.152 28.152l.75 1.314c2.144 3.78 13.734 15.862 17.662 18.72M259.7 569c-13.995 0-27.684-4.35-39.722-13.096-6.736-4.895-22.482-20.487-28.143-30.583-7.514-11.853-11.004-14.389-15.405-17.589-4.412-3.203-7.898-5.735-21.5-9.214-11.36-2.267-31.061-12.423-37.791-17.318-25.478-18.511-34.51-50.148-23.568-82.563 10.781-31.938 27.924-51.244 53.952-60.753l.616-.215L347 273l-.076 209.733c-1.01 27.69-14.076 49.953-41.123 70.073C291.317 563.58 275.32 569 259.7 569"/>
        <path fill="#0029E7" d="M266.006 399.867c26.613-26.755 49.65-45.132 68.655-62.06 3.336-2.973 3.06-8.263-.552-10.891l-31.028-22.571c-3.613-2.629-8.723-1.258-10.515 2.838-10.208 23.329-20.544 50.947-37.732 84.554-3.649 7.134 5.525 13.808 11.172 8.13"/>
        <path fill="#0029E7" d="M302.514 324.043c-1.27 2.979-2.548 6.02-3.859 9.135-2.671 6.339-5.46 12.958-8.47 19.903 5.717-4.997 11.202-9.685 16.448-14.169 2.574-2.196 5.087-4.346 7.538-6.45l-11.657-8.42zM260.556 417c-4.816 0-9.652-1.479-13.833-4.493-9.436-6.807-12.424-19.246-7.102-29.576 12.128-23.521 20.833-44.196 28.514-62.436 3.029-7.194 5.905-14.016 8.771-20.507 2.87-6.512 8.474-11.311 15.383-13.171 6.94-1.856 14.21-.514 20.004 3.665l30.996 22.372c5.793 4.174 9.324 10.645 9.682 17.756.353 7.103-2.507 13.884-7.86 18.612-5.323 4.707-10.961 9.526-16.903 14.6-15.091 12.897-32.199 27.517-50.974 46.244-4.596 4.586-10.615 6.934-16.678 6.934z"/>
        <path fill="#EC001D" d="M68.518 278.422c-6.745 20.706-.196 43.96 22.763 60.204 22.96 16.245 42.634 20.895 64.042 14.8L331 296.56 222.39 147.572c-13.728-17.48-32.385-25.25-60.534-25.567-28.148-.316-47.152 14.657-53.898 35.363-2.076 6.372-5.11 26.52-3.99 33.927 1.198 17.998-.877 24.368-2.953 30.74-2.076 6.372-4.152 12.742-15.729 26.6-5.27 5.336-14.692 23.415-16.768 29.787"/>
        <path fill="#0029E7" d="M85.189 284.64c-4.751 14.673 1.035 29.148 15.885 39.708 18.373 13.07 32.284 16.615 47.95 12.232l150.82-49.064-93.24-128.541c-10.098-12.773-23.45-18.092-45.966-18.347-.225-.005-.444-.005-.664-.005-17.863 0-30.77 8.277-35.47 22.77-1.504 4.625-3.778 21.26-3.278 25.67l.152 1.44c1.321 19.962-.84 28.535-3.803 37.665-2.946 9.12-6.225 17.325-19.014 32.704l-1.016 1.124c-2.935 3.213-10.853 18.02-12.356 22.644M136.682 375c-18.653 0-37.117-6.825-56.75-20.784-27.93-19.865-39.233-50.862-29.496-80.894l.006-.004c2.574-7.945 12.545-27.8 20.407-36.327 8.971-10.846 10.297-14.954 11.974-20.129 1.688-5.201 3.019-9.314 2.131-23.374-1.356-11.532 2.218-33.465 4.798-41.41C99.386 122.353 126.246 104 159.99 104c.352 0 .704 0 1.055.005 33.733.384 57.412 10.75 74.51 32.628l.398.52L359 306.779 159.348 371.71c-7.642 2.187-15.172 3.29-22.666 3.29"/>
        <path fill="#0029E7" d="M214.856 269.165c33.507 16.956 57.988 33.104 79.857 45.881 3.84 2.243 8.76.359 10.134-3.865l11.807-36.27c1.375-4.224-1.497-8.636-5.923-9.073-25.217-2.494-54.53-3.794-91.623-9.736-7.873-1.26-11.364 9.463-4.252 13.063"/>
        <path fill="#0029E7" d="M266.788 277.948c6.583 3.873 12.801 7.624 18.746 11.206 2.903 1.749 5.74 3.462 8.524 5.128l4.471-13.654c-3.242-.274-6.557-.545-9.943-.82-6.937-.566-14.177-1.157-21.798-1.86M299.455 332a23.7 23.7 0 0 1-11.912-3.22c-6.171-3.578-12.543-7.42-19.264-11.473-17.086-10.3-36.453-21.98-60.296-33.967h-.005c-10.458-5.26-15.421-17.093-11.804-28.143 3.623-11.049 14.686-17.73 26.228-15.895 26.391 4.205 48.98 6.045 68.908 7.67 7.836.642 15.276 1.249 22.399 1.953 7.147.697 13.504 4.525 17.435 10.492 3.935 5.973 4.913 13.292 2.682 20.08l-11.885 36.292c-2.215 6.778-7.344 12.13-14.07 14.672a23.856 23.856 0 0 1-8.416 1.539"/>
        <path fill="#FFF" d="M329 168c-106.103 0-196.208 123.574-228.515 173.92-7.596 11.837-5.296 28.947 5.028 37.272C123.654 393.821 153.879 413 187.648 413c60.145 0 103.909-27.124 140.173-27.124.395 0 .784-.006 1.18-.006.394 0 .783.006 1.178.006 36.264 0 80.028 27.124 140.173 27.124 33.77 0 63.994-19.18 82.135-33.808 10.324-8.325 12.624-25.435 5.028-37.271C525.208 291.574 435.103 168 329 168"/>
        <path fill="#0029E7" d="M329.002 367.414l.705.005c18.984 0 38.062 5.715 58.256 11.763 23.95 7.173 51.094 15.302 82.223 15.302 27.858 0 53.746-16.143 70.558-29.683 2.771-2.236 3.847-8.87 1.108-13.133-24.884-38.747-113.77-165.153-212.85-165.153-99.085 0-187.97 126.406-212.854 165.153-2.74 4.263-1.664 10.897 1.112 13.133 16.812 13.54 42.705 29.683 70.554 29.683 31.133 0 58.277-8.129 82.222-15.302 20.195-6.048 39.271-11.763 57.787-11.763l1.18-.005zM470.186 431c-36.497 0-67.676-9.338-92.727-16.841-18.317-5.487-34.135-10.225-47.284-10.225l-1.647-.005-.705.005c-13.148 0-28.964 4.738-47.277 10.225C255.495 421.662 224.315 431 187.814 431c-38.522 0-72.116-20.545-93.52-37.778-17.546-14.136-21.55-41.62-8.933-61.268C120.501 277.247 214.581 150 329.002 150c114.422 0 208.497 127.247 243.636 181.954 12.619 19.648 8.612 47.132-8.929 61.262C542.311 410.455 508.718 431 470.186 431z"/>
        <path fill="#FFF" d="M426 264c0 53.02-43.205 96-96.5 96S233 317.02 233 264s43.205-96 96.5-96 96.5 42.98 96.5 96"/>
        <path fill="#0029E7" d="M329.5 186.616c-42.944 0-77.884 34.94-77.884 77.884 0 42.945 34.94 77.884 77.884 77.884 42.945 0 77.884-34.939 77.884-77.884 0-42.944-34.939-77.884-77.884-77.884m0 192.384C266.362 379 215 327.638 215 264.5S266.362 150 329.5 150 444 201.362 444 264.5 392.638 379 329.5 379"/>
        <path fill="#FFF" d="M415 227c0 29.27-23.953 53-53.5 53-29.548 0-53.5-23.73-53.5-53 0-29.271 23.952-53 53.5-53 29.547 0 53.5 23.729 53.5 53"/>
        <path fill="#0029E7" d="M361.5 192.49c-19.305 0-35.01 15.706-35.01 35.01s15.705 35.01 35.01 35.01 35.01-15.706 35.01-35.01-15.705-35.01-35.01-35.01m0 106.51c-39.424 0-71.5-32.077-71.5-71.5 0-39.422 32.076-71.5 71.5-71.5s71.5 32.078 71.5 71.5c0 39.423-32.076 71.5-71.5 71.5"/>
    </g>
</svg>
