<svg xmlns="http://www.w3.org/2000/svg" width="32" height="32" viewBox="0 0 32 32">
    <g fill="#FFF" fill-rule="evenodd">
        <path d="M15.963 26.694c-.815 0-1.476-.66-1.476-1.475v-9.661h-2.985a1.475 1.475 0 1 1 0-2.95h2.985V11.28a5.982 5.982 0 0 1 5.976-5.973 1.474 1.474 0 0 1 0 2.95 3.028 3.028 0 0 0-3.025 3.023v1.328h3.06a1.475 1.475 0 1 1 0 2.95h-3.06v9.66c0 .815-.66 1.476-1.475 1.476"/>
        <path d="M16 0c-4.346 0-4.891.018-6.597.096C7.701.175 6.538.445 5.518.84a7.837 7.837 0 0 0-2.832 1.845A7.832 7.832 0 0 0 .84 5.52C.445 6.536.174 7.7.096 9.403.018 11.11 0 11.655 0 16c0 4.346.018 4.89.096 6.597.078 1.704.349 2.866.744 3.883a7.832 7.832 0 0 0 1.846 2.835 7.858 7.858 0 0 0 2.832 1.845c1.02.395 2.183.666 3.885.744C11.11 31.981 11.654 32 16 32s4.891-.019 6.597-.096c1.702-.078 2.865-.349 3.885-.744a7.858 7.858 0 0 0 2.832-1.845 7.812 7.812 0 0 0 1.846-2.835c.397-1.017.667-2.179.742-3.883C31.981 20.89 32 20.346 32 16c0-4.345-.02-4.891-.098-6.597-.075-1.704-.345-2.867-.742-3.883a7.812 7.812 0 0 0-1.846-2.835A7.837 7.837 0 0 0 26.482.84c-1.02-.395-2.183-.665-3.885-.744C20.89.018 20.346 0 16 0m0 2.883c4.272 0 4.778.016 6.466.093 1.56.07 2.406.331 2.97.55.746.292 1.28.639 1.84 1.197.56.56.906 1.093 1.198 1.84.219.565.48 1.412.55 2.972.077 1.688.093 2.193.093 6.465s-.016 4.778-.093 6.466c-.07 1.56-.331 2.406-.55 2.971a4.98 4.98 0 0 1-1.197 1.838 4.966 4.966 0 0 1-1.842 1.197c-.563.221-1.41.48-2.97.552-1.687.077-2.193.093-6.465.093s-4.778-.016-6.466-.093c-1.56-.072-2.406-.331-2.97-.552a4.966 4.966 0 0 1-1.84-1.197 4.98 4.98 0 0 1-1.198-1.838c-.219-.565-.48-1.411-.55-2.971-.077-1.688-.093-2.194-.093-6.466s.016-4.777.093-6.465c.07-1.56.331-2.407.55-2.972a4.987 4.987 0 0 1 1.197-1.84 5.006 5.006 0 0 1 1.842-1.196c.563-.22 1.41-.48 2.97-.55 1.687-.078 2.193-.094 6.465-.094"/>
    </g>
</svg>
