<svg xmlns="http://www.w3.org/2000/svg" xmlns:xlink="http://www.w3.org/1999/xlink" width="32" height="32" viewBox="0 0 32 32">
    <defs>
        <path id="a" d="M0 16V0h32v32H0z"/>
    </defs>
    <g fill="none" fill-rule="evenodd">
        <g>
            <mask id="b" fill="#fff">
                <use xlink:href="#a"/>
            </mask>
            <path fill="#FFF" d="M16 0c-4.346 0-4.891.017-6.597.096C7.701.174 6.538.445 5.518.84a7.858 7.858 0 0 0-2.832 1.845A7.812 7.812 0 0 0 .84 5.52C.443 6.537.173 7.699.098 9.403.019 11.11 0 11.654 0 16c0 4.345.02 4.891.098 6.597.075 1.704.345 2.867.742 3.883a7.812 7.812 0 0 0 1.846 2.835 7.837 7.837 0 0 0 2.832 1.845c1.02.395 2.183.665 3.885.744C11.11 31.982 11.654 32 16 32s4.891-.018 6.597-.096c1.702-.079 2.865-.349 3.885-.744a7.837 7.837 0 0 0 2.832-1.845 7.812 7.812 0 0 0 1.846-2.835c.397-1.016.667-2.18.742-3.883C31.981 20.89 32 20.345 32 16c0-4.346-.02-4.89-.098-6.597-.075-1.704-.345-2.866-.742-3.883a7.812 7.812 0 0 0-1.846-2.835A7.858 7.858 0 0 0 26.482.84c-1.02-.395-2.183-.666-3.885-.744C20.89.017 20.346 0 16 0m0 2.883c4.272 0 4.778.016 6.466.093 1.56.072 2.406.331 2.97.552.746.29 1.28.637 1.84 1.197a4.967 4.967 0 0 1 1.198 1.838c.219.565.48 1.411.55 2.971.077 1.688.093 2.194.093 6.466s-.016 4.777-.093 6.465c-.07 1.56-.331 2.407-.55 2.972a4.987 4.987 0 0 1-1.197 1.84 5.006 5.006 0 0 1-1.842 1.196c-.563.22-1.41.48-2.97.55-1.687.078-2.193.094-6.465.094s-4.778-.016-6.466-.093c-1.56-.07-2.406-.331-2.97-.55a5.006 5.006 0 0 1-1.84-1.197 4.987 4.987 0 0 1-1.198-1.84c-.219-.565-.48-1.412-.55-2.972-.077-1.688-.093-2.193-.093-6.465s.016-4.778.093-6.466c.07-1.56.331-2.406.55-2.971a4.967 4.967 0 0 1 1.197-1.838 4.966 4.966 0 0 1 1.842-1.197c.563-.221 1.41-.48 2.97-.552 1.687-.077 2.193-.093 6.465-.093" mask="url(#b)"/>
        </g>
        <path fill="#FFF" d="M16 21.334a5.333 5.333 0 1 1 .001-10.667A5.333 5.333 0 0 1 16 21.334m0-13.55a8.217 8.217 0 0 0 0 16.433 8.217 8.217 0 0 0 0-16.434M26.461 7.46a1.92 1.92 0 1 1-3.839 0 1.92 1.92 0 0 1 3.839 0"/>
    </g>
</svg>
